<?xml version="1.0" encoding="UTF-8"?>
<!DOCTYPE svg PUBLIC "-//W3C//DTD SVG 1.1//EN" "http://www.w3.org/Graphics/SVG/1.1/DTD/svg11.dtd">
<svg xmlns="http://www.w3.org/2000/svg" version="1.1" width="842px" height="546px" style="shape-rendering:geometricPrecision; text-rendering:geometricPrecision; image-rendering:optimizeQuality; fill-rule:evenodd; clip-rule:evenodd" xmlns:xlink="http://www.w3.org/1999/xlink">
<g><path style="opacity:1" fill="#5dcbf2" d="M 55.5,201.5 C 106.451,152.216 156.784,102.216 206.5,51.5C 219.477,39.5419 234.81,32.0419 252.5,29C 282.749,24.0627 310.083,30.7294 334.5,49C 350.985,64.3184 366.985,80.1518 382.5,96.5C 350.486,128.681 318.652,161.014 287,193.5C 255.126,238.238 252.126,284.904 278,333.5C 282.281,340.115 286.947,346.448 292,352.5C 322.347,382.68 352.514,413.014 382.5,443.5C 368.347,458.153 354.014,472.653 339.5,487C 303.027,516.055 263.694,520.389 221.5,500C 215.892,496.724 210.558,493.057 205.5,489C 154.667,438.167 103.833,387.333 53,336.5C 24.5051,299.03 21.1718,259.363 43,217.5C 46.4623,211.554 50.6289,206.22 55.5,201.5 Z M 192.5,310.5 C 189.167,313.167 186.167,316.167 183.5,319.5C 160.047,335.658 136.713,335.491 113.5,319C 96.1626,303.5 89.996,284.333 95,261.5C 106.46,230.384 128.626,217.217 161.5,222C 185.969,229.086 200.136,245.253 204,270.5C 205.118,285.307 201.285,298.64 192.5,310.5 Z"/></g>
<g><path style="opacity:1" fill="#faae3f" d="M 618.5,39.5 C 618.821,41.0481 619.821,41.7148 621.5,41.5C 629.845,46.0057 637.512,51.5057 644.5,58C 689.667,103.167 734.833,148.333 780,193.5C 783.049,197.043 785.882,200.709 788.5,204.5C 788.427,206.027 789.094,207.027 790.5,207.5C 801.795,222.867 808.295,240.201 810,259.5C 812.481,292.392 802.814,321.059 781,345.5C 735.167,391.333 689.333,437.167 643.5,483C 608.104,513.394 568.437,520.394 524.5,504C 519.113,501.646 514.113,498.812 509.5,495.5C 509.027,494.094 508.027,493.427 506.5,493.5C 506.027,492.094 505.027,491.427 503.5,491.5C 500.379,489.552 497.379,487.385 494.5,485C 447.333,437.833 400.167,390.667 353,343.5C 324.292,308.25 317.959,269.25 334,226.5C 336.354,221.113 339.188,216.113 342.5,211.5C 343.906,211.027 344.573,210.027 344.5,208.5C 347.771,202.898 351.771,197.898 356.5,193.5C 403.784,147.883 450.451,101.549 496.5,54.5C 513.347,38.9177 533.347,30.0844 556.5,28C 578.313,25.9125 598.98,29.7458 618.5,39.5 Z M 489.5,303.5 C 488.094,303.973 487.427,304.973 487.5,306.5C 467.965,330.217 443.965,336.05 415.5,324C 407.726,319.39 401.059,313.557 395.5,306.5C 395.573,304.973 394.906,303.973 393.5,303.5C 379.632,273.478 385.632,248.311 411.5,228C 443.39,212.04 469.557,218.54 490,247.5C 499.933,266.246 499.766,284.912 489.5,303.5 Z"/></g>
<g><path style="opacity:0.941" fill="#7a5622" d="M 618.5,39.5 C 619.71,39.9321 620.71,40.5987 621.5,41.5C 619.821,41.7148 618.821,41.0481 618.5,39.5 Z"/></g>
<g><path style="opacity:0.941" fill="#a7752b" d="M 496.5,54.5 C 450.451,101.549 403.784,147.883 356.5,193.5C 402.549,146.451 449.216,100.117 496.5,54.5 Z"/></g>
<g><path style="opacity:0.941" fill="#3f89a4" d="M 206.5,51.5 C 156.784,102.216 106.451,152.216 55.5,201.5C 105.216,150.784 155.549,100.784 206.5,51.5 Z"/></g>
<g><path style="opacity:0.816" fill="#795521" d="M 788.5,204.5 C 789.906,204.973 790.573,205.973 790.5,207.5C 789.094,207.027 788.427,206.027 788.5,204.5 Z"/></g>
<g><path style="opacity:0.565" fill="#765320" d="M 344.5,208.5 C 344.573,210.027 343.906,211.027 342.5,211.5C 342.427,209.973 343.094,208.973 344.5,208.5 Z"/></g>
<g><path style="opacity:0.565" fill="#765320" d="M 393.5,303.5 C 394.906,303.973 395.573,304.973 395.5,306.5C 394.094,306.027 393.427,305.027 393.5,303.5 Z"/></g>
<g><path style="opacity:0.565" fill="#765320" d="M 489.5,303.5 C 489.573,305.027 488.906,306.027 487.5,306.5C 487.427,304.973 488.094,303.973 489.5,303.5 Z"/></g>
<g><path style="opacity:0.816" fill="#387288" d="M 192.5,310.5 C 190.5,314.5 187.5,317.5 183.5,319.5C 186.167,316.167 189.167,313.167 192.5,310.5 Z"/></g>
<g><path style="opacity:0.565" fill="#71501f" d="M 503.5,491.5 C 505.027,491.427 506.027,492.094 506.5,493.5C 504.973,493.573 503.973,492.906 503.5,491.5 Z"/></g>
<g><path style="opacity:0.565" fill="#765320" d="M 506.5,493.5 C 508.027,493.427 509.027,494.094 509.5,495.5C 507.973,495.573 506.973,494.906 506.5,493.5 Z"/></g>
</svg>
